{
	"asset":{
		"generator":"Khronos glTF Blender I/O v4.1.62",
		"version":"2.0"
	},
	"scene":0,
	"scenes":[
		{
			"name":"Scene",
			"nodes":[
				43
			]
		}
	],
	"nodes":[
		{
			"name":"leg_front_left_toe_end",
			"rotation":[
				-3.117602886959503e-07,
				9.564971747977324e-08,
				1.0430814256778831e-07,
				1
			],
			"scale":[
				1,
				0.9999999403953552,
				1
			],
			"translation":[
				-5.789099759567762e-07,
				3.0000016689300537,
				1.6313957758029574e-06
			]
		},
		{
			"children":[
				0
			],
			"name":"leg_front_left_toe",
			"rotation":[
				-0.5766612887382507,
				-0.42421191930770874,
				-0.42421162128448486,
				0.5545725226402283
			],
			"scale":[
				1.0000001192092896,
				1.000000238418579,
				1
			],
			"translation":[
				-6.556510925292969e-07,
				8.00390911102295,
				-6.258487701416016e-07
			]
		},
		{
			"children":[
				1
			],
			"name":"leg_front_left_ankle",
			"rotation":[
				0.11866597831249237,
				-0.03558018058538437,
				0.08969392627477646,
				0.9882345199584961
			],
			"scale":[
				0.9999999403953552,
				0.9999998807907104,
				0.9999999403953552
			],
			"translation":[
				1.3113021850585938e-06,
				6.324757099151611,
				-4.76837158203125e-07
			]
		},
		{
			"children":[
				2
			],
			"name":"leg_front_left_bot0",
			"rotation":[
				-1.4495294919925072e-07,
				-0.7709999084472656,
				-0.13329540193080902,
				0.6227290630340576
			],
			"translation":[
				2.4587001234976924e-07,
				11.760004997253418,
				-1.9073030443905736e-07
			]
		},
		{
			"children":[
				3
			],
			"name":"leg_front_left_top1",
			"rotation":[
				2.0617980212023213e-08,
				0.17689132690429688,
				-0.39059337973594666,
				0.9034081697463989
			],
			"scale":[
				0.9999999403953552,
				0.9999999403953552,
				1
			],
			"translation":[
				0,
				10.131343841552734,
				-1.0728836059570312e-06
			]
		},
		{
			"children":[
				4
			],
			"name":"leg_front_left_top0",
			"rotation":[
				-0.39137911796569824,
				-0.5989264249801636,
				-0.676338255405426,
				0.17514613270759583
			],
			"scale":[
				1,
				0.9999999403953552,
				0.9999999403953552
			],
			"translation":[
				0,
				7.605848789215088,
				-3.5762786865234375e-07
			]
		},
		{
			"name":"head0_end",
			"rotation":[
				-8.259667083621025e-08,
				2.2154126781970263e-06,
				1.4435499906539917e-08,
				1
			],
			"translation":[
				8.568167686462402e-07,
				5.820670127868652,
				1.346692442893982e-06
			]
		},
		{
			"children":[
				6
			],
			"name":"head0",
			"rotation":[
				0.548945426940918,
				-0.08797436952590942,
				-0.06458388268947601,
				0.8287028074264526
			],
			"scale":[
				1,
				1.0000001192092896,
				1
			],
			"translation":[
				0,
				8.594802856445312,
				0
			]
		},
		{
			"children":[
				7
			],
			"name":"neck1",
			"rotation":[
				0.12504801154136658,
				0,
				0,
				0.9921507239341736
			],
			"scale":[
				1,
				0.9999998807907104,
				0.9999999403953552
			],
			"translation":[
				0,
				19.62810707092285,
				-5.960464477539062e-07
			]
		},
		{
			"children":[
				8
			],
			"name":"neck0",
			"rotation":[
				0.08727723360061646,
				0,
				0,
				0.9961840510368347
			],
			"scale":[
				1,
				0.9999999403953552,
				1
			],
			"translation":[
				0,
				7.605848789215088,
				-3.5762786865234375e-07
			]
		},
		{
			"name":"leg_front_right_toe_end",
			"rotation":[
				-3.117602886959503e-07,
				-9.564971747977324e-08,
				-1.0430814256778831e-07,
				1
			],
			"scale":[
				1,
				0.9999999403953552,
				1
			],
			"translation":[
				5.789099759567762e-07,
				3.0000016689300537,
				1.6313957758029574e-06
			]
		},
		{
			"children":[
				10
			],
			"name":"leg_front_right_toe",
			"rotation":[
				-0.5766612887382507,
				0.42421191930770874,
				0.42421162128448486,
				0.5545725226402283
			],
			"scale":[
				1.0000001192092896,
				1.000000238418579,
				1
			],
			"translation":[
				6.556510925292969e-07,
				8.00390911102295,
				-6.258487701416016e-07
			]
		},
		{
			"children":[
				11
			],
			"name":"leg_front_right_ankle",
			"rotation":[
				0.11866597831249237,
				0.03558018058538437,
				-0.08969392627477646,
				0.9882345199584961
			],
			"scale":[
				0.9999999403953552,
				0.9999998807907104,
				0.9999999403953552
			],
			"translation":[
				-1.3113021850585938e-06,
				6.324757099151611,
				-4.76837158203125e-07
			]
		},
		{
			"children":[
				12
			],
			"name":"leg_front_right_bot0",
			"rotation":[
				-1.4495294919925072e-07,
				0.7709999084472656,
				0.13329540193080902,
				0.6227290630340576
			],
			"translation":[
				-2.4587001234976924e-07,
				11.760004997253418,
				-1.9073030443905736e-07
			]
		},
		{
			"children":[
				13
			],
			"name":"leg_front_right_top1",
			"rotation":[
				2.0617980212023213e-08,
				-0.17689132690429688,
				0.39059337973594666,
				0.9034081697463989
			],
			"scale":[
				0.9999999403953552,
				0.9999999403953552,
				1
			],
			"translation":[
				0,
				10.131343841552734,
				-1.0728836059570312e-06
			]
		},
		{
			"children":[
				14
			],
			"name":"leg_front_right_top0",
			"rotation":[
				-0.39137911796569824,
				0.5989264249801636,
				0.676338255405426,
				0.17514613270759583
			],
			"scale":[
				1,
				0.9999999403953552,
				0.9999999403953552
			],
			"translation":[
				0,
				7.605848789215088,
				-3.5762786865234375e-07
			]
		},
		{
			"children":[
				5,
				9,
				15
			],
			"name":"body_top1",
			"rotation":[
				-0.0435158796608448,
				0,
				0,
				0.9990527033805847
			],
			"translation":[
				0,
				7.604444980621338,
				9.98377799987793e-07
			]
		},
		{
			"children":[
				16
			],
			"name":"body_top0",
			"rotation":[
				-0.11698397994041443,
				0,
				0,
				0.9931338429450989
			],
			"scale":[
				1,
				1.0000001192092896,
				1
			],
			"translation":[
				0,
				6.734655380249023,
				-2.2351741790771484e-06
			]
		},
		{
			"name":"tail6_end",
			"rotation":[
				-4.172323428974778e-07,
				-1.4361845046551025e-12,
				-4.1167069753100805e-13,
				1
			],
			"translation":[
				2.2737367544323206e-13,
				3.4860427379608154,
				4.768266705923452e-07
			]
		},
		{
			"children":[
				18
			],
			"name":"tail6",
			"rotation":[
				0.15350893139839172,
				7.208200969444079e-08,
				1.397884261677973e-07,
				0.9881473183631897
			],
			"translation":[
				-6.821210263296962e-13,
				3.891058921813965,
				1.192084141621308e-06
			]
		},
		{
			"children":[
				19
			],
			"name":"tail5",
			"rotation":[
				0.13294507563114166,
				9.447101945170289e-08,
				9.869275174878567e-08,
				0.991123378276825
			],
			"translation":[
				-1.3642420526593924e-12,
				4.25214958190918,
				-6.256328788367682e-12
			]
		},
		{
			"children":[
				20
			],
			"name":"tail4",
			"rotation":[
				0.17339925467967987,
				1.5542553910563583e-07,
				8.483102220679939e-08,
				0.984851598739624
			],
			"translation":[
				6.821210263296962e-13,
				3.938727378845215,
				1.907345790641557e-06
			]
		},
		{
			"children":[
				21
			],
			"name":"tail3",
			"rotation":[
				0.07625944167375565,
				7.641100552291391e-08,
				1.942893312900651e-08,
				0.9970880150794983
			],
			"scale":[
				1,
				1,
				1.0000001192092896
			],
			"translation":[
				3.637978807091713e-12,
				4.365941047668457,
				1.6689288031557226e-06
			]
		},
		{
			"children":[
				22
			],
			"name":"tail2",
			"rotation":[
				-0.14148163795471191,
				-1.5476130101887975e-06,
				-2.2019652590188343e-07,
				0.989940881729126
			],
			"scale":[
				1,
				0.9999999403953552,
				0.9999999403953552
			],
			"translation":[
				6.336381375149358e-08,
				5.650386810302734,
				2.1457590264617465e-06
			]
		},
		{
			"children":[
				23
			],
			"name":"tail1",
			"rotation":[
				0.21635892987251282,
				0.17975065112113953,
				-0.05903133004903793,
				0.9578068256378174
			],
			"scale":[
				1,
				0.9999999403953552,
				0.9999999403953552
			],
			"translation":[
				-3.85770135835628e-08,
				8.498273849487305,
				-3.335392193548614e-06
			]
		},
		{
			"children":[
				24
			],
			"name":"tail0",
			"rotation":[
				-0.374729186296463,
				-0.19573214650154114,
				0.09120944142341614,
				0.9016361832618713
			],
			"scale":[
				1,
				0.9999999403953552,
				1
			],
			"translation":[
				-2.9802322387695312e-08,
				9.137144088745117,
				-3.779307007789612e-06
			]
		},
		{
			"children":[
				25
			],
			"name":"pelvis",
			"rotation":[
				-0.33079808950424194,
				0.01643831841647625,
				-0.019656075164675713,
				0.9433536529541016
			],
			"scale":[
				1,
				1.0000001192092896,
				1
			],
			"translation":[
				-7.450580596923828e-09,
				8.776531219482422,
				-8.222996257245541e-07
			]
		},
		{
			"name":"leg_hind_left_toe_end",
			"rotation":[
				-8.465741671050131e-13,
				1.339697291768971e-06,
				-1.5397864672195283e-07,
				1
			],
			"translation":[
				-1.709345269773621e-07,
				2.9999990463256836,
				-1.6307458281517029e-06
			]
		},
		{
			"children":[
				27
			],
			"name":"leg_hind_left_toe",
			"rotation":[
				-0.6270198822021484,
				-0.06998888403177261,
				-0.06998402625322342,
				0.7726900577545166
			],
			"scale":[
				0.9999998807907104,
				0.9999998211860657,
				0.9999999403953552
			],
			"translation":[
				2.682209014892578e-07,
				7.356381416320801,
				-1.9073486328125e-06
			]
		},
		{
			"children":[
				28
			],
			"name":"leg_hind_left_ankle",
			"rotation":[
				-0.33333560824394226,
				0.15142257511615753,
				-0.01757453940808773,
				0.9304029941558838
			],
			"scale":[
				1,
				0.9999998807907104,
				0.9999999403953552
			],
			"translation":[
				-1.043081283569336e-06,
				11.364370346069336,
				1.1920928955078125e-06
			]
		},
		{
			"children":[
				29
			],
			"name":"leg_hind_left_bot0",
			"rotation":[
				7.967534543240617e-08,
				0.9701843857765198,
				-0.23581652343273163,
				0.05597210302948952
			],
			"scale":[
				1,
				0.9999998211860657,
				1
			],
			"translation":[
				-1.1533416000020225e-06,
				8.560336112976074,
				-5.267052074486855e-07
			]
		},
		{
			"children":[
				30
			],
			"name":"leg_hind_left_top1",
			"rotation":[
				1.5776434736380907e-07,
				-0.4135476052761078,
				-0.32613256573677063,
				0.850068211555481
			],
			"scale":[
				0.9999999403953552,
				1,
				1.0000001192092896
			],
			"translation":[
				-1.1920928955078125e-06,
				10.009557723999023,
				3.5762786865234375e-07
			]
		},
		{
			"children":[
				31
			],
			"name":"leg_hind_left_top0",
			"rotation":[
				-0.5250324606895447,
				-0.5789308547973633,
				0.6226731538772583,
				0.038185350596904755
			],
			"scale":[
				1,
				0.9999999403953552,
				1
			],
			"translation":[
				-7.450580596923828e-09,
				8.776531219482422,
				-8.222996257245541e-07
			]
		},
		{
			"name":"leg_hind_right_toe_end",
			"rotation":[
				-3.2286374107570737e-07,
				-1.5185704569375957e-06,
				-1.3844633989582023e-12,
				1
			],
			"translation":[
				-6.029044357092062e-07,
				2.9999966621398926,
				2.599186700535938e-06
			]
		},
		{
			"children":[
				33
			],
			"name":"leg_hind_right_toe",
			"rotation":[
				-0.6270192861557007,
				0.06998898088932037,
				0.06998502463102341,
				0.7726904153823853
			],
			"scale":[
				0.9999998807907104,
				0.9999998807907104,
				0.9999999403953552
			],
			"translation":[
				1.1920928955078125e-07,
				7.356382369995117,
				-1.7881393432617188e-06
			]
		},
		{
			"children":[
				34
			],
			"name":"leg_hind_right_ankle",
			"rotation":[
				-0.3333355784416199,
				-0.15142351388931274,
				0.017574690282344818,
				0.9304028749465942
			],
			"scale":[
				1.0000001192092896,
				1,
				1
			],
			"translation":[
				-3.5762786865234375e-07,
				11.364368438720703,
				-1.7881393432617188e-07
			]
		},
		{
			"children":[
				35
			],
			"name":"leg_hind_right_bot0",
			"rotation":[
				-1.6847015160692536e-07,
				-0.9701843857765198,
				0.2358163744211197,
				0.05597209930419922
			],
			"scale":[
				1,
				1.0000001192092896,
				1
			],
			"translation":[
				2.2646418074145913e-07,
				8.560336112976074,
				-9.810831897993921e-07
			]
		},
		{
			"children":[
				36
			],
			"name":"leg_hind_right_top1",
			"rotation":[
				-3.3234366014767147e-07,
				0.40709975361824036,
				0.329460084438324,
				0.8518954515457153
			],
			"scale":[
				0.9999999403953552,
				0.9999998807907104,
				0.9999998807907104
			],
			"translation":[
				4.76837158203125e-07,
				10.0653657913208,
				-1.1920928955078125e-07
			]
		},
		{
			"children":[
				37
			],
			"name":"leg_hind_right_top0",
			"rotation":[
				-0.5225591659545898,
				0.5769867897033691,
				-0.6265592575073242,
				0.03796951472759247
			],
			"scale":[
				1,
				1.000000238418579,
				1
			],
			"translation":[
				-7.450580596923828e-09,
				8.776531219482422,
				-8.222996257245541e-07
			]
		},
		{
			"children":[
				26,
				32,
				38
			],
			"name":"body_bot",
			"rotation":[
				0.9981101155281067,
				0.003004866885021329,
				0.002456954214721918,
				0.061328671872615814
			],
			"scale":[
				0.9999999403953552,
				1,
				0.9999828934669495
			],
			"translation":[
				0,
				-1.9073486328125e-06,
				4.76837158203125e-07
			]
		},
		{
			"children":[
				17,
				39
			],
			"name":"body",
			"rotation":[
				0.7742612957954407,
				0,
				0,
				0.6328660845756531
			],
			"scale":[
				1,
				0.9999999403953552,
				0.9999999403953552
			],
			"translation":[
				0,
				34.09263610839844,
				-8.350340843200684
			]
		},
		{
			"children":[
				40
			],
			"name":"root",
			"rotation":[
				-0.7071031928062439,
				0,
				0,
				0.7071103453636169
			],
			"translation":[
				0,
				0,
				19.632720947265625
			]
		},
		{
			"mesh":0,
			"name":"Tiger_001",
			"skin":0
		},
		{
			"children":[
				42,
				41
			],
			"name":"rig",
			"rotation":[
				0.7071068286895752,
				0,
				0,
				0.7071068286895752
			]
		}
	],
	"materials":[
		{
			"doubleSided":true,
			"name":"material",
			"pbrMetallicRoughness":{
				"metallicFactor":0,
				"roughnessFactor":0.5527864098548889
			}
		}
	],
	"meshes":[
		{
			"name":"Tiger_001",
			"primitives":[
				{
					"attributes":{
						"POSITION":0,
						"NORMAL":1,
						"TEXCOORD_0":2,
						"JOINTS_0":3,
						"WEIGHTS_0":4
					},
					"indices":5,
					"material":0
				}
			]
		}
	],
	"skins":[
		{
			"inverseBindMatrices":6,
			"joints":[
				41,
				40,
				17,
				16,
				5,
				4,
				3,
				2,
				1,
				0,
				9,
				8,
				7,
				6,
				15,
				14,
				13,
				12,
				11,
				10,
				39,
				26,
				25,
				24,
				23,
				22,
				21,
				20,
				19,
				18,
				32,
				31,
				30,
				29,
				28,
				27,
				38,
				37,
				36,
				35,
				34,
				33
			],
			"name":"rig"
		}
	],
	"accessors":[
		{
			"bufferView":0,
			"componentType":5126,
			"count":3713,
			"max":[
				11.153129577636719,
				19.632719039916992,
				44.611244201660156
			],
			"min":[
				-11.153131484985352,
				-19.632719039916992,
				-44.611244201660156
			],
			"type":"VEC3"
		},
		{
			"bufferView":1,
			"componentType":5126,
			"count":3713,
			"type":"VEC3"
		},
		{
			"bufferView":2,
			"componentType":5126,
			"count":3713,
			"type":"VEC2"
		},
		{
			"bufferView":3,
			"componentType":5121,
			"count":3713,
			"type":"VEC4"
		},
		{
			"bufferView":4,
			"componentType":5126,
			"count":3713,
			"type":"VEC4"
		},
		{
			"bufferView":5,
			"componentType":5123,
			"count":7614,
			"type":"SCALAR"
		},
		{
			"bufferView":6,
			"componentType":5126,
			"count":42,
			"type":"MAT4"
		}
	],
	"bufferViews":[
		{
			"buffer":0,
			"byteLength":44556,
			"byteOffset":0,
			"target":34962
		},
		{
			"buffer":0,
			"byteLength":44556,
			"byteOffset":44556,
			"target":34962
		},
		{
			"buffer":0,
			"byteLength":29704,
			"byteOffset":89112,
			"target":34962
		},
		{
			"buffer":0,
			"byteLength":14852,
			"byteOffset":118816,
			"target":34962
		},
		{
			"buffer":0,
			"byteLength":59408,
			"byteOffset":133668,
			"target":34962
		},
		{
			"buffer":0,
			"byteLength":15228,
			"byteOffset":193076,
			"target":34963
		},
		{
			"buffer":0,
			"byteLength":2688,
			"byteOffset":208304
		}
	],
	"buffers":[
		{
			"byteLength":210992,
			"uri":"Tiger_001.bin"
		}
	]
}
